<svg width="171" height="56" viewBox="0 0 171 56" fill="none" xmlns="http://www.w3.org/2000/svg">
<path d="M80.5422 23.464V4.55859H84.6451L90.6787 15.3923L96.7124 4.55859H100.708V23.464H96.2565V13.1934L91.9391 20.6751H89.2575L84.9937 13.3007V23.464H80.5422Z" fill="white"/>
<path d="M104.188 23.464V4.55859H117.543V8.36649H108.908V11.9599H116.926V15.7678H108.908V19.6561H117.543V23.464H104.188Z" fill="white"/>
<path d="M120.66 23.464V4.55859H128.491C131.762 4.55859 134.301 5.38096 136.107 7.02568C137.912 8.67041 138.815 10.9945 138.815 13.9979C138.815 17.0013 137.912 19.3343 136.107 20.9969C134.301 22.6416 131.762 23.464 128.491 23.464H120.66ZM125.595 19.4684H128.169C130.046 19.4684 131.432 19.0215 132.326 18.1276C133.237 17.2158 133.693 15.8393 133.693 13.9979C133.693 12.1565 133.237 10.7889 132.326 9.89501C131.414 9.00114 130.028 8.5542 128.169 8.5542H125.595V19.4684Z" fill="white"/>
<path d="M141.742 23.464V4.55859H146.676V23.464H141.742Z" fill="white"/>
<path d="M78.826 52.2512L78.531 48.3092L80.7299 48.1751C81.3914 48.1394 81.8652 47.9874 82.1512 47.7192C82.4551 47.4332 82.6071 46.9684 82.6071 46.3248V33.0508H87.5412V46.2443C87.5412 49.9271 85.5479 51.8847 81.5612 52.1171L78.826 52.2512Z" fill="white"/>
<path d="M99.3303 52.2512C96.5772 52.2512 94.4676 51.5539 93.0017 50.1595C91.5536 48.7651 90.8296 46.6823 90.8296 43.9113V33.0508H95.7638V43.965C95.7638 45.3415 96.0677 46.3784 96.6755 47.0756C97.2833 47.7729 98.1683 48.1215 99.3303 48.1215C100.474 48.1215 101.35 47.7729 101.958 47.0756C102.566 46.3784 102.87 45.3415 102.87 43.965V33.0508H107.724V43.9113C107.724 46.6823 107.009 48.7651 105.578 50.1595C104.166 51.5539 102.083 52.2512 99.3303 52.2512Z" fill="white"/>
<path d="M108.613 51.9562L117.462 33.0508H121.351L130.2 51.9562H125.266L123.63 48.1215H115.183L113.547 51.9562H108.613ZM119.366 38.1995L116.792 44.3404H121.994L119.42 38.1995H119.366Z" fill="white"/>
<path d="M131.345 51.9562V33.0508H134.965L143.654 43.8845V33.0508H148.212V51.9562H144.619L135.931 41.1225V51.9562H131.345Z" fill="white"/>
<path d="M149.387 51.9562L158.237 33.0508H162.125L170.974 51.9562H166.04L164.404 48.1215H155.957L154.321 51.9562H149.387ZM160.141 38.1995L157.566 44.3404H162.769L160.194 38.1995H160.141Z" fill="white"/>
<g clip-path="url(#clip0)">
<path d="M35.6242 0L36.0392 0.936438L37.7582 4.62366C41.0183 11.7055 43.33 18.4361 44.6934 24.7571C46.9458 22.7671 49.554 20.7772 52.4584 18.7288L55.7186 16.3877L58.8009 14.1636C53.9996 6.2039 45.5232 0.702329 35.6242 0Z" fill="url(#paint0_linear)"/>
<path d="M60.2829 16.8558L60.1051 18.7872L59.7494 22.7671C59.6901 23.1183 59.0974 30.3757 56.6078 38.1013C58.2675 37.8086 59.9865 37.5745 61.6462 37.4575C62.4761 34.7652 62.891 31.9559 62.891 28.971C62.9503 24.6985 62.0019 20.6016 60.2829 16.8558Z" fill="url(#paint1_linear)"/>
<path d="M6.93501 18.7873L6.75718 16.7974C5.0382 20.4846 4.03052 24.6401 4.03052 29.0296C4.03052 31.956 4.50472 34.8238 5.2753 37.5161C6.99429 37.6332 8.654 37.8673 10.373 38.1599C7.94269 30.6684 7.29066 23.7036 7.23139 22.8257L6.93501 18.7873Z" fill="url(#paint2_linear)"/>
<path d="M8.17979 14.1051L11.3214 16.3291L14.5815 18.6702C17.486 20.7187 20.0349 22.7671 22.3466 24.6986C23.7099 18.4361 26.081 11.6469 29.2818 4.62366L31.0008 0.936438L31.4157 0C21.576 0.702329 13.0404 6.14537 8.17979 14.1051Z" fill="url(#paint3_linear)"/>
<path d="M63.6618 40.1497C59.5125 40.3252 55.6596 41.0276 52.2809 42.0225C56.1338 33.1264 57.0229 23.1767 57.0229 22.5914L57.3786 18.6116L54.1184 20.9527C49.08 24.5228 45.4642 27.6248 42.9154 30.2585C41.9077 23.4108 39.6552 15.3341 35.2096 5.73556L33.4906 2.04834L31.7716 5.73556C27.4445 15.3341 25.1328 23.4108 24.1844 30.2C21.5762 27.5663 18.0197 24.4643 12.9813 20.8942L9.72116 18.5531L10.0768 22.5329C10.1361 23.1182 11.0252 33.1264 14.8188 41.964C11.3809 40.969 7.58725 40.2667 3.43797 40.0911L0 39.9741L1.77826 42.9004C1.95609 43.1346 3.79362 46.1194 7.35015 49.7481C10.8474 53.3183 15.708 55.3082 20.7464 55.3082C14.2854 51.6796 9.78044 47.1144 7.29087 44.1295C11.8551 44.7148 15.9451 46.0609 19.3238 47.5241C21.8133 48.6361 24.0658 50.2164 25.8441 52.2648C27.563 54.1962 29.9933 55.3082 32.6015 55.3082C28.9264 50.4505 22.8803 37.1648 33.6091 11.2371C44.338 37.1062 38.0548 50.3919 34.439 55.3082H34.4983C37.1064 55.3082 39.5367 54.1377 41.1964 52.2063C42.9154 50.2749 44.99 48.7532 47.361 47.6997C50.8583 46.1194 55.0668 44.7733 59.8088 44.1295C57.3193 47.1144 52.8736 51.7381 46.3533 55.3082C51.3917 55.3082 56.1931 53.3183 59.6903 49.7481C63.3061 46.1194 65.1436 43.1346 65.2622 42.9004L67.0404 39.9741L63.6618 40.1497ZM24.4807 45.9439C21.0428 44.1295 18.3161 41.1446 17.0713 37.5159C15.6487 33.4775 14.8188 29.4391 14.3446 26.5128C18.9088 30.0829 21.8726 32.9508 23.7694 35.2334C23.5323 39.3303 23.888 42.9004 24.4807 45.9439ZM42.619 45.9439C43.2117 42.9004 43.5674 39.3303 43.3303 35.1748C45.2271 32.9508 48.1316 30.0244 52.7551 26.4543C52.2809 29.3806 51.451 33.419 50.0284 37.4574C48.7244 41.1446 45.9977 44.1295 42.619 45.9439Z" fill="#8EB360"/>
</g>
<defs>
<linearGradient id="paint0_linear" x1="19.8151" y1="-22.1312" x2="19.8151" y2="76.1329" gradientUnits="userSpaceOnUse">
<stop offset="0.0257851" stop-color="#EC7E4F"/>
<stop offset="1" stop-color="#EC7E4F"/>
</linearGradient>
<linearGradient id="paint1_linear" x1="19.8151" y1="-22.1312" x2="19.8151" y2="76.1329" gradientUnits="userSpaceOnUse">
<stop offset="0.0257851" stop-color="#EC7E4F"/>
<stop offset="1" stop-color="#EC7E4F"/>
</linearGradient>
<linearGradient id="paint2_linear" x1="19.8151" y1="-22.1312" x2="19.8151" y2="76.1329" gradientUnits="userSpaceOnUse">
<stop offset="0.0257851" stop-color="#EC7E4F"/>
<stop offset="1" stop-color="#EC7E4F"/>
</linearGradient>
<linearGradient id="paint3_linear" x1="19.8151" y1="-22.1312" x2="19.8151" y2="76.1329" gradientUnits="userSpaceOnUse">
<stop offset="0.0257851" stop-color="#EC7E4F"/>
<stop offset="1" stop-color="#EC7E4F"/>
</linearGradient>
<clipPath id="clip0">
<rect width="67.0404" height="55.3084" fill="white"/>
</clipPath>
</defs>
</svg>
