<svg width="103" height="34" viewBox="0 0 103 34" fill="none" xmlns="http://www.w3.org/2000/svg">
    <path d="M48.056 14V2.72H50.504L54.104 9.184L57.704 2.72H60.088V14H57.432V7.872L54.856 12.336H53.256L50.712 7.936V14H48.056ZM62.1646 14V2.72H70.1326V4.992H64.9806V7.136H69.7646V9.408H64.9806V11.728H70.1326V14H62.1646ZM71.9928 14V2.72H76.6648C78.6168 2.72 80.1314 3.21067 81.2088 4.192C82.2861 5.17333 82.8248 6.56 82.8248 8.352C82.8248 10.144 82.2861 11.536 81.2088 12.528C80.1314 13.5093 78.6168 14 76.6648 14H71.9928ZM74.9368 11.616H76.4728C77.5928 11.616 78.4194 11.3493 78.9528 10.816C79.4968 10.272 79.7688 9.45067 79.7688 8.352C79.7688 7.25333 79.4968 6.43733 78.9528 5.904C78.4088 5.37067 77.5821 5.104 76.4728 5.104H74.9368V11.616ZM84.5709 14V2.72H87.5149V14H84.5709ZM47.032 31.176L46.856 28.824L48.168 28.744C48.5627 28.7227 48.8453 28.632 49.016 28.472C49.1973 28.3013 49.288 28.024 49.288 27.64V19.72H52.232V27.592C52.232 29.7893 51.0427 30.9573 48.664 31.096L47.032 31.176ZM59.266 31.176C57.6233 31.176 56.3647 30.76 55.49 29.928C54.626 29.096 54.194 27.8533 54.194 26.2V19.72H57.138V26.232C57.138 27.0533 57.3193 27.672 57.682 28.088C58.0447 28.504 58.5727 28.712 59.266 28.712C59.9487 28.712 60.4713 28.504 60.834 28.088C61.1967 27.672 61.378 27.0533 61.378 26.232V19.72H64.274V26.2C64.274 27.8533 63.8473 29.096 62.994 29.928C62.1513 30.76 60.9087 31.176 59.266 31.176ZM64.8046 31L70.0846 19.72H72.4046L77.6846 31H74.7406L73.7646 28.712H68.7246L67.7486 31H64.8046ZM71.2206 22.792L69.6846 26.456H72.7886L71.2526 22.792H71.2206ZM78.3678 31V19.72H80.5278L85.7118 26.184V19.72H88.4318V31H86.2878L81.1038 24.536V31H78.3678ZM89.1327 31L94.4128 19.72H96.7328L102.013 31H99.0688L98.0928 28.712H93.0528L92.0768 31H89.1327ZM95.5488 22.792L94.0128 26.456H97.1168L95.5808 22.792H95.5488Z"
          fill="white"/>
    <path d="M21.2553 0L21.5029 0.55873L22.5285 2.75873C24.4737 6.98413 25.853 11 26.6665 14.7714C28.0104 13.5841 29.5666 12.3968 31.2995 11.1746L33.2447 9.77778L35.0838 8.45079C32.2191 3.70159 27.1616 0.419048 21.2553 0Z"
          fill="url(#paint0_linear)"/>
    <path d="M35.968 10.0571L35.8619 11.2095L35.6497 13.5841C35.6144 13.7936 35.2607 18.1238 33.7753 22.7333C34.7656 22.5587 35.7912 22.419 36.7815 22.3492C37.2766 20.7428 37.5242 19.0666 37.5242 17.2857C37.5595 14.7365 36.9937 12.292 35.968 10.0571Z"
          fill="url(#paint1_linear)"/>
    <path d="M4.13776 11.2096L4.03166 10.0223C3.00602 12.2223 2.40479 14.7016 2.40479 17.3207C2.40479 19.0667 2.68772 20.7778 3.14749 22.3842C4.17313 22.454 5.16341 22.5937 6.18905 22.7683C4.739 18.2984 4.34997 14.1429 4.3146 13.6191L4.13776 11.2096Z"
          fill="url(#paint2_linear)"/>
    <path d="M4.88047 8.41587L6.75492 9.74286L8.7001 11.1397C10.4331 12.3619 11.9539 13.5841 13.3332 14.7365C14.1466 11 15.5613 6.94921 17.4711 2.75873L18.4967 0.55873L18.7443 0C12.8734 0.419048 7.78056 3.66667 4.88047 8.41587Z"
          fill="url(#paint3_linear)"/>
    <path d="M37.9841 23.9555C35.5084 24.0603 33.2095 24.4793 31.1936 25.073C33.4925 19.765 34.023 13.8285 34.023 13.4793L34.2352 11.1047L32.29 12.5015C29.2838 14.6317 27.1264 16.4825 25.6057 18.0539C25.0044 13.9682 23.6605 9.14915 21.008 3.42217L19.9823 1.22217L18.9567 3.42217C16.3749 9.14915 14.9956 13.9682 14.4297 18.019C12.8736 16.4476 10.7515 14.5968 7.74536 12.4666L5.80018 11.0698L6.01238 13.4444C6.04775 13.7936 6.57825 19.765 8.84173 25.038C6.79045 24.4444 4.52697 24.0253 2.05128 23.9206L0 23.8507L1.06101 25.5968C1.16711 25.7365 2.26348 27.5174 4.3855 29.6825C6.47215 31.8126 9.37224 32.9999 12.3784 32.9999C8.52343 30.8349 5.83554 28.1111 4.35013 26.3301C7.07339 26.6793 9.5137 27.4825 11.5296 28.3555C13.015 29.019 14.359 29.9619 15.42 31.1841C16.4456 32.3365 17.8957 32.9999 19.4518 32.9999C17.2591 30.1015 13.6516 22.1745 20.0531 6.70471C26.4545 22.1396 22.7056 30.0666 20.5482 32.9999H20.5836C22.1397 32.9999 23.5897 32.3015 24.58 31.1492C25.6057 29.9968 26.8435 29.0888 28.2582 28.4603C30.3448 27.5174 32.8559 26.7142 35.6852 26.3301C34.1998 28.1111 31.5473 30.8698 27.6569 32.9999C30.6631 32.9999 33.5279 31.8126 35.6145 29.6825C37.7719 27.5174 38.8683 25.7365 38.939 25.5968L40 23.8507L37.9841 23.9555ZM14.6065 27.4126C12.5553 26.3301 10.9284 24.5492 10.1857 22.3841C9.33687 19.9745 8.84173 17.565 8.5588 15.819C11.2821 17.9492 13.0504 19.6603 14.1821 21.0222C14.0407 23.4666 14.2529 25.5968 14.6065 27.4126ZM25.4288 27.4126C25.7825 25.5968 25.9947 23.4666 25.8532 20.9872C26.985 19.6603 28.7179 17.9142 31.4766 15.7841C31.1936 17.5301 30.6985 19.9396 29.8497 22.3492C29.0716 24.5492 27.4447 26.3301 25.4288 27.4126Z"
          fill="#8EB360"/>
    <defs>
        <linearGradient id="paint0_linear" x1="11.8228" y1="-13.2047" x2="11.8228" y2="45.425"
                        gradientUnits="userSpaceOnUse">
            <stop offset="0.0257851" stop-color="#EC7E4F"/>
            <stop offset="1" stop-color="#EC7E4F"/>
        </linearGradient>
        <linearGradient id="paint1_linear" x1="11.8228" y1="-13.2047" x2="11.8228" y2="45.425"
                        gradientUnits="userSpaceOnUse">
            <stop offset="0.0257851" stop-color="#EC7E4F"/>
            <stop offset="1" stop-color="#EC7E4F"/>
        </linearGradient>
        <linearGradient id="paint2_linear" x1="11.8228" y1="-13.2047" x2="11.8228" y2="45.425"
                        gradientUnits="userSpaceOnUse">
            <stop offset="0.0257851" stop-color="#EC7E4F"/>
            <stop offset="1" stop-color="#EC7E4F"/>
        </linearGradient>
        <linearGradient id="paint3_linear" x1="11.8228" y1="-13.2047" x2="11.8228" y2="45.425"
                        gradientUnits="userSpaceOnUse">
            <stop offset="0.0257851" stop-color="#EC7E4F"/>
            <stop offset="1" stop-color="#EC7E4F"/>
        </linearGradient>
    </defs>
</svg>
